#N canvas 569 375 602 506 10;
#X obj 145 13 bng 16 250 50 0 empty empty start 0 -8 0 10 #fcfcfc #000000 #000000;
#X obj 144 50 metro 100;
#X obj 111 85 random 12;
#X obj 197 86 random 12;
#X obj 109 115 + 60;
#X obj 197 118 + 72;
#X obj 109 153 mtof;
#X obj 197 151 mtof;
#X obj 109 181 osc~;
#X obj 198 177 osc~;
#X obj 108 214 hip~ 5;
#X obj 201 213 hip~ 5;
#X obj 163 236 dac~;
#X floatatom 298 52 5 0 0 0 left - - 0;
#X floatatom 392 57 5 0 0 0 right - - 0;
#X connect 0 0 1 0;
#X connect 1 0 2 0;
#X connect 1 0 3 0;
#X connect 2 0 4 0;
#X connect 3 0 5 0;
#X connect 4 0 6 0;
#X connect 5 0 7 0;
#X connect 6 0 8 0;
#X connect 7 0 9 0;
#X connect 8 0 10 0;
#X connect 9 0 11 0;
#X connect 10 0 12 0;
#X connect 11 0 12 1;
#X connect 13 0 4 1;
#X connect 14 0 5 1;
