#N canvas 997 486 450 300 10;
#X obj 42 28 hsl 100 19 30 150 0 1 empty empty frequency -2 -10 0 12 #fcfcfc #000000 #000000 4000 1;
#X obj 88 78 *~;
#X obj 144 78 osc~ 10;
#X obj 83 110 osc~ 440;
#X obj 83 172 dac~;
#X obj 210 18 hsl 100 19 30 150 0 1 empty empty frequency2 -2 -10 0 12 #fcfcfc #000000 #000000 0 1;
#X obj 50 60 mtof;
#X obj 193 50 mtof;
#X connect 0 0 6 0;
#X connect 1 0 3 0;
#X connect 2 0 1 1;
#X connect 3 0 4 0;
#X connect 3 0 4 1;
#X connect 5 0 7 0;
#X connect 6 0 1 0;
#X connect 7 0 2 0;
