#N canvas 1154 396 971 538 12;
#X obj 165 141 readsf~;
#X obj 240 22 bng 19 250 50 0 empty empty load_sound 0 -10 0 12 #fcfcfc #000000 #000000;
#X obj 214 54 openpanel;
#X obj 165 194 dac~;
#X msg 259 106 open \$1;
#X obj 148 22 bng 19 250 50 0 empty empty play_sound 0 -10 0 12 #fcfcfc #000000 #000000;
#X msg 149 86 start;
#X obj 44 25 bng 19 250 50 0 empty empty stop_sound 0 -10 0 12 #fcfcfc #000000 #000000;
#X msg 73 49 stop;
#X connect 0 0 3 0;
#X connect 0 0 3 1;
#X connect 1 0 2 0;
#X connect 2 0 4 0;
#X connect 4 0 0 0;
#X connect 5 0 6 0;
#X connect 6 0 0 0;
#X connect 7 0 8 0;
#X connect 8 0 0 0;
