#N canvas 1157 498 450 300 10;
#X obj 35 32 hsl 100 19 50 5000 1 1 empty empty frequency -2 -10 0 12 #fcfcfc #000000 #000000 5200 1;
#X obj 56 155 dac~;
#X obj 58 92 phasor~;
#X obj 174 58 bng 16 250 50 0 empty empty empty 0 -8 0 10 #fcfcfc #000000 #000000;
#X obj 277 104 bng 16 250 50 0 empty empty empty 0 -8 0 10 #fcfcfc #000000 #000000;
#X connect 0 0 2 0;
#X connect 2 0 1 0;
#X connect 2 0 1 1;
#X connect 3 0 2 1;
#X connect 4 0 2 1;
